<svg width="208" height="41" viewBox="0 0 208 41" fill="none" xmlns="http://www.w3.org/2000/svg">
<path d="M21.1259 19.9148C19.9498 19.0971 18.2417 18.4767 15.9455 18.082C14.6854 17.8564 12.9492 17.6026 10.765 17.2924C9.1969 16.954 8.41283 16.4465 8.41283 15.7133C8.32883 15.4313 8.38483 15.2058 8.63685 14.9802C9.05689 14.529 10.065 14.2752 11.6611 14.2752C12.7812 14.2752 14.0413 14.5572 15.4414 15.093C16.8416 15.6287 17.7096 15.9107 17.9897 15.9107C18.6897 15.9107 19.3618 15.0648 19.9498 13.3729C20.4539 11.9912 20.7059 10.9761 20.7059 10.2993C20.7059 9.76354 19.6698 9.14319 17.5976 8.43824C15.3574 7.64869 13.0612 7.25392 10.765 7.22573C7.90879 7.16933 5.6406 7.78969 3.96045 9.05859C1.88828 10.6095 0.852187 13.0345 0.852187 16.3901C0.852187 18.4203 1.66426 19.9994 3.2884 21.0709C4.43649 21.8605 6.22865 22.509 8.63685 22.9884C11.9411 23.637 13.7053 24.0035 13.9573 24.0599C15.5534 24.5675 16.3655 25.357 16.3655 26.4004L16.2255 26.7951C16.0855 27.1053 15.8895 27.3873 15.6095 27.6411C14.6854 28.4588 13.2292 28.8818 11.1851 28.8818C9.02889 28.8818 7.09672 28.2332 5.38858 26.9643C5.16456 26.7669 4.63251 26.344 3.84844 25.639C3.40041 25.2442 3.06438 25.0469 2.86836 25.0469C2.22431 25.0469 1.63625 26.0056 1.0482 27.923C0.740178 28.8818 0.516159 29.8687 0.348145 30.8838C0.348145 31.5888 1.38423 32.3783 3.42841 33.2807C5.86462 34.3522 8.63685 34.9162 11.7451 34.9162C16.5615 34.9162 19.9498 33.3089 21.91 30.1225C22.9461 28.4024 23.4781 26.5695 23.4781 24.6239C23.4781 22.5654 22.6941 21.0145 21.1259 19.9148Z" fill="white"/>
<path d="M38.1514 1.54385C37.9274 0.8671 36.9473 0.613319 35.2672 0.782507C33.363 0.979893 32.1589 1.37466 31.6269 1.96682C31.4029 2.2206 31.2908 2.78456 31.2908 3.60231C31.2908 5.88634 31.4029 8.08578 31.6269 10.1724C31.1508 10.2006 30.7308 10.2006 30.4228 10.2006L25.4103 10.2852C24.9623 10.8492 24.7383 11.3568 24.7383 11.8361C24.7383 13.1614 24.9063 14.4021 25.2423 15.5301C25.3263 15.812 25.4103 16.094 25.5223 16.3196C26.5304 16.6298 28.4066 16.799 31.1508 16.799C31.3748 16.799 31.6269 16.799 31.8509 16.799C31.8789 17.4475 31.8789 18.0679 31.9349 18.6318V21.6772C32.0189 22.6359 32.0749 24.074 32.0749 26.0479C31.9629 27.5706 31.9349 28.9805 31.9629 30.334C32.0749 32.9564 32.5229 34.4791 33.307 34.8739L39.0475 34.9021C39.2995 34.6201 39.5235 34.1971 39.6636 33.6332C39.7756 33.2384 39.8316 32.8718 39.8316 32.5052C39.8316 32.2233 39.6636 29.9956 39.3275 25.8505C39.3275 25.1456 39.3275 24.4406 39.3275 23.7921C39.3275 21.226 39.3275 19.647 39.2995 19.0548C39.2435 18.1807 39.1595 17.3629 39.0755 16.658C39.1875 16.658 39.2995 16.6298 39.4395 16.6016H41.3717C42.7718 16.4888 43.6959 16.3478 44.1719 16.2068C44.284 16.1786 44.368 16.1222 44.452 16.094C44.592 16.094 44.704 16.094 44.788 16.094C44.844 15.953 44.9 15.812 44.928 15.671C45.04 15.1917 45.096 14.6277 45.04 14.0074C45.04 13.6972 45.012 13.246 44.984 12.6539C44.928 11.8925 44.844 11.3004 44.76 10.8774C44.732 10.7364 44.676 10.4544 44.592 10.0314C44.508 9.69307 44.34 9.52388 44.0879 9.52388C43.3879 9.52388 42.2678 9.55208 40.7557 9.63667C39.6916 9.69307 38.8795 9.74947 38.2914 9.83406V3.26393C38.2354 3.15114 38.2074 2.86916 38.2354 2.47439C38.2354 2.05142 38.2354 1.74124 38.1514 1.54385Z" fill="white"/>
<path d="M71.0121 9.69304C70.9281 9.69304 70.8721 9.72123 70.8161 9.72123C70.8161 9.72123 70.7881 9.72123 70.7881 9.74943H66.6997C66.6997 9.74943 66.6717 9.72123 66.6437 9.72123C66.1957 9.66484 65.8877 9.74943 65.6916 10.0314C65.5516 10.2006 65.4676 10.3416 65.4676 10.5108C65.4676 10.5108 65.4676 10.539 65.4396 10.539C65.4396 10.6236 65.4396 10.7082 65.4396 10.7928C65.4396 10.821 65.4676 10.821 65.4676 10.8492C65.4676 13.6126 65.2436 16.235 64.7676 18.7446C64.5435 20.0699 64.2635 21.1978 63.9275 22.1565C63.0874 25.4275 61.6873 27.063 59.7271 27.063C57.4029 27.063 55.9188 26.0479 55.2747 24.0458C55.1627 23.6792 55.0507 23.1717 54.9667 22.5795C54.8267 21.508 54.7427 20.4929 54.7707 19.5623C54.7707 17.5321 54.8827 15.8684 55.1067 14.5431C55.3307 13.1896 55.4988 12.1181 55.6388 11.3003C55.7508 10.4826 55.6388 10.0314 55.2467 9.94682C53.9586 9.89042 52.7825 9.83403 51.7464 9.74943H50.4023C50.3463 9.74943 50.3183 9.72123 50.2623 9.72123H50.2063C50.1783 9.72123 50.0663 9.72123 49.8703 9.69304C49.6463 9.63664 49.4782 9.72123 49.3662 9.94682C49.2822 10.1724 49.1982 10.3134 49.1982 10.398C49.1422 10.4826 49.1142 10.539 49.1142 10.5954C48.7782 11.5259 48.5542 12.2591 48.4702 12.7384C48.3021 13.669 48.1901 14.7405 48.1341 15.9248C48.1061 16.5733 48.0781 17.6449 48.0781 19.1394C48.0781 24.3278 49.1982 28.5011 51.4384 31.6875L51.4664 31.7157C51.5224 31.7721 51.5784 31.8567 51.6624 31.9131C51.8865 32.1386 52.0825 32.3642 52.2785 32.5616C53.9306 33.5485 55.4988 34.0561 57.0109 34.0561C57.0669 34.0561 57.1509 34.0561 57.2349 34.0561C57.935 34.1407 58.663 34.1971 59.4471 34.1971C61.4073 34.1971 63.0314 33.3793 64.3195 31.7157C64.5435 31.4337 64.7396 31.1799 64.9356 30.9261C64.9356 31.2363 64.9636 31.5183 64.9916 31.7439C65.1316 32.9282 65.3556 33.8869 65.7196 34.5637V34.6201C66.0557 34.7892 66.5037 34.902 67.0638 34.9302H69.1919C70.088 34.8174 70.7041 34.6201 71.0681 34.3381C71.1241 34.2817 71.1801 34.2253 71.2361 34.1407C71.5161 33.8869 71.6842 33.6049 71.7122 33.2666C71.9082 31.6875 72.0202 30.8415 72.0482 30.7005V23.1999C72.1322 21.8746 72.2442 19.7597 72.3842 16.7989C72.5242 13.8381 72.5802 12.2027 72.5802 11.9489C72.5802 11.9489 72.5802 11.6951 72.6082 11.1875C72.6082 10.68 72.5522 10.3134 72.4682 10.0878C72.3842 9.83403 72.1322 9.72123 71.7402 9.69304C71.4601 9.69304 71.2641 9.69304 71.0121 9.69304Z" fill="white"/>
<path d="M99.1826 0.091647L94.7583 0.00705437C93.8062 -0.0493416 93.2461 0.401825 93.1061 1.33236C93.1621 2.29109 93.2181 2.77046 93.2181 2.82685C93.4421 7.33853 93.5542 9.73536 93.5542 10.0173C93.5542 10.2147 93.5542 10.3275 93.5542 10.3557L93.5261 10.4967C93.3301 10.4685 92.8541 10.2711 92.098 9.90455C91.0339 9.53797 89.4938 9.36879 87.4776 9.36879C82.6052 9.36879 79.2449 11.0889 77.4528 14.529C76.5287 16.2773 76.0807 18.3921 76.0807 20.8454C75.9967 23.0166 76.3887 25.0751 77.3128 26.9925C79.1329 30.8275 82.6052 32.7167 87.7297 32.7167C90.1099 32.7167 91.902 32.5193 93.1061 32.1246C93.4701 31.9836 93.7502 31.8426 93.9182 31.7016C93.9182 32.2655 93.9462 32.7731 93.9742 33.1961C93.9462 33.6191 93.9462 33.9856 93.9742 34.2958V34.324C94.0022 34.3522 94.0022 34.3522 94.0582 34.3804C94.1142 34.4086 94.1422 34.465 94.1702 34.465C94.2262 34.5778 94.2542 34.6906 94.3102 34.747C94.5622 35.1135 95.1783 35.3391 96.1584 35.4519C96.3824 35.4801 96.5784 35.5083 96.7744 35.5083C96.8304 35.5083 96.9424 35.5083 97.0545 35.5083C97.2225 35.5083 97.3905 35.5083 97.5585 35.5083C98.3986 35.5083 99.0426 35.4519 99.5187 35.3673C99.6027 35.3673 99.6587 35.3391 99.7427 35.3391C99.7707 35.3391 99.7707 35.3109 99.7707 35.3109C99.7987 35.2827 99.8267 35.2545 99.8547 35.2263C99.9387 35.1981 99.9947 35.1417 100.051 35.1135C100.107 35.0571 100.163 35.0008 100.219 34.9162C100.555 34.5214 100.723 34.0984 100.723 33.6473C100.583 31.8708 100.471 30.2917 100.387 28.8536C100.359 25.8364 100.191 21.0709 99.9387 14.529C99.8827 13.1191 99.8267 11.822 99.7707 10.6377L99.9387 5.22368C99.9387 4.32135 99.9107 3.44721 99.8267 2.65766C99.7147 1.24777 99.4907 0.401825 99.1826 0.091647ZM84.3414 17.3206C85.3495 16.3619 86.5536 15.8261 87.9537 15.6851C89.3818 15.5723 90.5859 15.9107 91.566 16.6721C92.6581 17.5462 93.2181 18.8151 93.2181 20.4506C93.2181 21.9451 92.8821 23.214 92.21 24.2855C91.258 25.7518 89.8298 26.485 87.8697 26.485C85.7135 26.485 84.2294 25.7236 83.4173 24.2291C82.9692 23.4114 82.7452 22.4527 82.7452 21.3247C82.7172 19.7174 83.2493 18.3921 84.3414 17.3206Z" fill="white"/>
<path d="M128.123 10.0173C128.095 9.93274 128.095 9.84814 128.039 9.79175C127.871 9.73535 127.731 9.65075 127.563 9.56616H124.287C124.287 9.56616 124.287 9.56616 124.259 9.56616C124.231 9.56616 124.231 9.53796 124.203 9.53796C124.007 9.56616 123.363 9.56616 122.299 9.50977C122.187 9.62256 122.019 9.73535 121.851 9.90454C121.598 10.1019 121.402 10.3557 121.29 10.6659C121.318 11.0325 121.346 11.3144 121.346 11.54C121.318 12.4706 121.318 13.2883 121.318 13.965C121.318 14.0214 121.318 14.106 121.318 14.1906C121.318 14.2188 121.318 14.2188 121.318 14.247C121.318 14.388 121.318 14.529 121.318 14.6418C121.318 14.67 121.29 14.67 121.29 14.67C121.122 16.4747 121.038 17.4898 121.038 17.7436C121.038 18.6177 120.842 19.6892 120.45 20.9863C120.058 22.1989 119.582 23.355 118.938 24.3983C118.07 24.0035 117.146 23.355 116.166 22.4808C115.998 22.3398 115.858 22.2271 115.718 22.1143C114.738 21.0709 113.898 19.8302 113.17 18.4203C112.582 17.3206 112.134 15.9107 111.854 14.2188C111.714 13.3447 111.49 12.0758 111.21 10.3557C111.21 10.3557 111.21 10.3275 111.21 10.2993C111.042 10.2147 110.902 10.0737 110.79 9.90454C110.314 9.87634 109.641 9.84814 108.801 9.81994C107.905 9.79175 107.149 9.76355 106.505 9.73535C106.309 9.76355 106.085 9.79175 105.861 9.81994V9.79175C105.413 9.73535 105.105 9.79175 104.853 9.93274C104.601 9.96093 104.405 10.0737 104.293 10.2711C104.265 10.2711 104.265 10.2993 104.237 10.3275C104.153 10.7787 104.125 11.1734 104.125 11.5118C104.125 14.5854 104.601 17.3488 105.581 19.7174C106.057 21.1555 106.505 22.2553 106.925 23.0166C107.625 24.2291 108.633 25.4698 109.949 26.7387C111.49 28.1768 113.002 29.1074 114.486 29.5021C114.01 29.9815 113.058 30.6019 111.658 31.3068C110.846 31.7298 110.006 32.0682 109.193 32.3501C107.765 32.9423 106.225 33.4217 104.601 33.8164C104.461 33.9856 104.321 34.1266 104.265 34.2676C104.377 34.9725 104.433 35.3673 104.433 35.4519C104.433 35.5647 104.433 35.6775 104.433 35.7339C104.601 36.2415 104.825 36.9182 105.077 37.7923C105.105 37.8769 105.357 38.4127 105.805 39.456C105.861 39.6252 105.945 39.8226 106.029 40.02C106.141 40.0764 106.281 40.161 106.421 40.2456C106.561 40.3302 106.673 40.4148 106.813 40.4994C107.233 40.4148 107.653 40.3584 108.073 40.2738C108.913 40.1328 109.669 39.9918 110.398 39.8226C110.818 39.7098 111.266 39.597 111.714 39.4278C112.05 39.315 112.414 39.2022 112.778 39.0895C113.058 38.9485 113.338 38.8357 113.646 38.6947C115.998 37.6232 118.182 36.2979 120.198 34.747C122.383 33.0269 123.951 31.335 124.931 29.6713C126.191 27.5001 127.171 24.8777 127.899 21.8323C128.571 19.0125 128.879 16.3337 128.879 13.7677C128.879 12.7525 128.851 12.104 128.823 11.822C128.739 10.9479 128.487 10.3557 128.123 10.0173ZM126.107 22.3117V22.2835C126.107 22.2271 126.135 22.1989 126.135 22.1707C126.135 22.2271 126.107 22.2553 126.107 22.3117Z" fill="white"/>
<path d="M154.753 10.1442C154.641 10.0878 154.501 10.0596 154.361 10.0314C153.717 9.52388 153.073 9.12911 152.401 8.84713C151.029 8.31137 148.761 8.00119 145.625 7.9166C141.34 8.39596 138.12 9.77766 135.992 12.0335C135.208 12.7103 134.536 13.4998 133.976 14.3457C132.547 16.4888 131.819 18.9138 131.819 21.6208C131.819 22.7769 131.931 23.8767 132.155 24.8636C132.323 26.9502 133.163 28.8113 134.704 30.4468C137.252 33.182 141.34 34.6483 146.969 34.8175C146.997 34.8457 147.249 34.8739 147.697 34.9021C148.117 34.9303 148.453 34.9585 148.705 34.9303C150.133 34.9303 151.393 34.7611 152.541 34.3945C153.409 34.3099 154.165 34.0561 154.781 33.6614C154.809 33.5486 154.837 33.4358 154.865 33.323C154.865 33.1256 154.893 32.8154 154.921 32.3925C154.977 31.9413 154.977 31.6875 154.977 31.6311C154.977 31.0671 154.893 29.9392 154.753 28.2191V28.1628C154.669 27.9936 154.529 27.8526 154.361 27.7116C154.277 27.7116 154.193 27.6834 154.053 27.627C153.941 27.5988 153.829 27.5706 153.717 27.5706C152.653 27.9372 151.281 28.1064 149.601 28.1064C145.344 28.1064 142.404 27.1194 140.78 25.1174C139.912 24.074 139.492 22.8333 139.492 21.3388C139.492 19.0266 140.388 17.3629 142.18 16.3196C143.72 15.4173 145.681 15.0507 148.089 15.2481C149.041 15.3327 149.965 15.4737 150.861 15.671C151.085 15.7274 151.309 15.7838 151.533 15.8402C152.177 16.0094 152.793 16.235 153.381 16.517C153.493 16.517 153.605 16.517 153.717 16.4888C153.829 16.4888 153.941 16.517 154.109 16.517C154.165 16.517 154.221 16.4888 154.249 16.4324C154.277 16.4324 154.277 16.4324 154.305 16.4042C154.585 15.8684 154.809 15.0789 154.949 14.0356C155.033 13.3306 155.089 12.5129 155.089 11.6105V10.9338C155.033 10.7646 155.005 10.5954 155.005 10.4262C154.949 10.3416 154.893 10.257 154.781 10.1442C154.781 10.1724 154.753 10.1442 154.753 10.1442Z" fill="white"/>
<path d="M176.399 9.36878C176.147 9.48157 176.035 9.62256 176.007 9.79175C176.007 9.96093 176.035 10.1019 176.035 10.1865C176.035 10.2993 176.035 10.4121 176.063 10.4967C175.699 10.3557 175.307 10.2147 174.915 10.0455C172.871 9.28418 171.471 8.86121 170.687 8.80482C169.37 8.46644 168.166 8.38185 167.046 8.49464C164.582 8.26905 162.426 9.14319 160.578 11.1453C159.542 12.2732 158.702 13.6267 158.114 15.2058C157.693 16.3055 157.413 17.2642 157.357 18.1102C157.077 19.0407 156.909 19.7174 156.909 20.1968C156.909 22.8474 157.245 24.9059 157.946 26.4004C158.002 26.485 158.03 26.5696 158.086 26.6541C158.282 27.1335 158.506 27.6129 158.73 28.064C160.634 31.476 163.994 33.1961 168.782 33.1961C170.659 33.1961 172.255 33.0551 173.599 32.7449C174.411 32.5757 175.195 32.2937 175.923 31.9554C175.951 32.1809 175.979 32.8013 176.007 33.8446C176.119 34.4368 176.315 34.8316 176.651 35.0571C176.651 35.0853 176.651 35.0853 176.651 35.1135H176.735C176.903 35.2263 177.099 35.2545 177.351 35.2545C178.079 35.2545 178.723 35.1981 179.283 35.1135L181.047 35.1417C181.86 35.1417 182.392 34.5214 182.616 33.3089C182.7 32.9141 182.728 32.0964 182.728 30.8274C182.728 30.6301 182.728 30.3481 182.728 30.0097C182.84 29.2766 182.896 28.1486 182.896 26.6541C182.728 22.7064 182.644 19.7456 182.616 17.8282C182.616 17.1796 182.672 15.5723 182.812 13.0345C182.672 11.7656 182.588 10.7787 182.532 10.1019C182.28 9.34058 181.888 8.974 181.355 8.974C178.695 8.91761 177.071 9.0586 176.399 9.36878ZM174.131 17.4616C174.971 18.7023 175.391 20.0558 175.391 21.4657C175.531 22.2553 175.363 23.0448 174.859 23.8343C173.879 25.3852 171.807 26.1748 168.642 26.1748C166.682 26.1748 165.226 25.4134 164.218 23.8907C163.574 22.9038 163.238 22.0297 163.238 21.2401C163.238 19.9712 163.714 18.6177 164.666 17.1514C165.898 15.2622 167.466 14.4444 169.398 14.67C171.471 14.9238 173.039 15.8543 174.131 17.4616Z" fill="white"/>
<path d="M201.195 3.34848C201.195 2.69992 201.167 2.24876 201.083 2.05137C200.859 1.37462 200.327 1.12084 199.487 1.34642H197.639C195.903 1.34642 194.867 1.37462 194.503 1.40282C194.307 1.43101 194.167 1.45921 194.055 1.51561L194.027 1.48741C193.915 1.48741 193.803 1.51561 193.747 1.572C193.719 1.6002 193.691 1.6566 193.607 1.74119C193.551 1.6848 193.523 1.6566 193.467 1.6002C193.383 2.02317 193.327 2.50254 193.327 3.0383C193.327 5.32234 193.355 6.76043 193.355 7.35259V7.38079C193.271 8.33952 193.243 9.10087 193.215 9.66483C193.215 9.74942 193.215 9.83401 193.215 9.91861C192.991 10.0032 192.683 10.0878 192.319 10.1442C191.562 10.2852 190.33 10.3416 188.65 10.3416C187.362 10.3416 186.662 10.7364 186.522 11.4977C186.466 11.5541 186.438 11.6669 186.438 11.8361C186.438 11.8643 186.438 11.8643 186.438 11.9207C186.326 12.2308 186.27 12.6256 186.27 13.105C186.326 14.3739 186.354 15.248 186.354 15.7274C186.326 16.094 186.298 16.4605 186.354 16.7989C186.382 17.3629 186.522 17.6731 186.718 17.7858C186.718 17.814 186.718 17.8422 186.718 17.8422C186.718 18.0114 186.802 18.1242 186.942 18.237C187.166 18.378 187.558 18.4908 188.146 18.5754L193.523 18.66V18.6882C193.523 18.7164 193.523 18.7446 193.523 18.7728C193.523 18.8292 193.523 18.8856 193.523 18.942C193.523 19.2239 193.523 19.5059 193.523 19.8443L193.551 21.2824C193.467 22.4385 193.411 23.933 193.411 25.7659C193.411 25.9069 193.383 26.5272 193.327 27.5705C193.299 28.6703 193.327 29.488 193.411 30.052C193.411 30.1084 193.439 30.8133 193.495 32.195C193.495 32.7026 193.551 33.1255 193.663 33.4921C193.635 33.6895 193.635 33.8587 193.635 34.0561C193.635 34.3099 193.803 34.5636 194.167 34.8174C194.307 34.8174 194.447 34.8456 194.615 34.8456C195.035 34.8174 195.623 34.8174 196.351 34.902C196.855 34.7892 197.415 34.7328 198.115 34.6764C199.403 34.5636 200.439 34.5073 201.279 34.5636C201.307 34.5073 201.363 34.4509 201.391 34.3945C201.587 34.2817 201.699 33.9997 201.727 33.5767C201.727 33.5767 201.727 33.2101 201.727 32.5052C201.727 31.772 201.699 31.2081 201.587 30.8133C201.587 30.2494 201.559 29.6854 201.559 29.1214V23.651C201.475 23.1153 201.363 22.3821 201.279 21.3952C201.251 21.1414 201.223 20.9158 201.195 20.6902C201.139 19.4213 201.083 18.3216 201.027 17.3629C201.055 17.3347 201.111 17.3347 201.139 17.3347C202.259 17.2783 203.632 17.1937 205.2 17.1373C206.348 17.0527 207.132 16.9117 207.524 16.6861H207.804L207.776 16.4605C207.776 16.4605 207.804 16.4323 207.804 16.4323C207.86 16.2914 207.888 16.094 207.916 15.812C207.916 15.6428 207.916 15.4172 207.916 15.1352C207.972 14.7687 208 14.2893 208 13.6689C208 13.3306 208 12.964 208 12.541C208 11.4695 207.972 10.8209 207.944 10.5672C207.832 9.58023 207.58 9.04447 207.132 8.95988C206.376 8.95988 205.872 8.95988 205.648 8.98807C205.508 8.98807 205.452 9.01627 205.452 9.07267C203.828 9.12906 202.427 9.15726 201.251 9.21366C201.223 8.5933 201.167 7.86015 201.083 7.01421C201.083 6.84503 201.083 6.67584 201.111 6.50665C201.139 4.67378 201.195 3.63046 201.195 3.34848Z" fill="white"/>
</svg>
