<svg width="79" height="72" viewBox="0 0 79 72" fill="none" xmlns="http://www.w3.org/2000/svg">
<path d="M21.3141 14.3853C19.3543 13.0804 17.5452 12.0154 15.8365 11.1953C13.783 10.2319 12.0032 9.72532 10.5223 9.67307C9.47717 9.65269 8.58022 9.84682 7.78361 10.2859C7.18109 10.6285 6.64132 11.0922 6.16679 11.7025C6.03051 11.8696 5.92189 12.0594 5.78808 12.2518C4.99759 13.5325 4.45814 15.298 4.14454 17.5508C3.87185 19.442 3.76473 21.7247 3.79797 24.4013C3.8337 27.1032 4.24307 30.7622 5.00585 35.4314C5.76863 40.1006 7.6289 46.6226 10.5916 55.0478L12.0734 53.0325L35.4539 26.0028C33.3566 24.074 31.4353 22.3823 29.7126 20.9C26.5463 18.1875 23.7392 16.0252 21.3141 14.3853Z" fill="#FFC421"/>
<path d="M48.7268 10.4161C50.0494 8.55544 51.3176 6.96339 52.5785 5.62693C54.1014 4.04079 55.5325 2.96173 56.8485 2.39626C57.7829 2.012 58.6566 1.87272 59.5229 1.98907C60.1817 2.08651 60.825 2.315 61.4593 2.69816C61.6387 2.80088 61.8009 2.93372 61.9866 3.06006C63.1328 3.93618 64.2172 5.33651 65.2634 7.25456C66.1502 8.8615 66.959 10.7435 67.7134 12.8942C68.7204 15.6092 69.6739 18.9729 70.6507 22.9896C71.1677 25.1042 71.6663 31.8648 72.1764 43.2883L68.1851 40.863L39.9309 25.824C41.1658 23.3535 42.3227 21.1581 43.3716 19.2207C45.3037 15.6705 47.0987 12.7414 48.7268 10.4161Z" fill="#FFC421"/>
<path d="M54.7441 16.0688C48.9128 14.2204 42.7752 13.7351 36.3313 14.6129C29.8343 15.4714 23.9831 17.5567 18.7525 20.8717C17.8956 21.4055 17.0918 21.9586 16.3411 22.531C12.5091 25.3768 9.64072 28.6466 7.68567 32.3461C7.57968 32.5371 7.47369 32.7281 7.39284 32.9163C6.95499 33.7841 6.59254 34.6433 6.26083 35.5499C6.21899 35.6313 6.17716 35.7128 6.16326 35.8165C6.14375 35.8698 6.12424 35.9232 6.10472 35.9765C5.81204 36.7764 5.57241 37.5957 5.38586 38.4343C5.31061 38.6729 5.5894 37.9766 6.19991 36.3739C5.11296 39.6404 4.50274 41.7027 4.36925 42.5607C4.31633 42.7711 4.26621 43.0067 4.24123 43.2393C4.19673 43.5253 4.17455 43.7832 4.15518 44.0663C4.1163 44.4027 4.10255 44.7361 4.11392 45.0667C4.06956 45.5824 4.07546 46.0923 4.13162 46.5963C4.13724 46.6467 4.11492 46.6749 4.12053 46.7253C4.12334 46.7505 4.12615 46.7757 4.15689 46.8231C4.44372 50.0829 5.59052 53.2937 7.62524 56.4776C9.65714 59.6364 12.3616 62.2062 15.7581 64.1339C19.1547 66.0616 23.1762 67.2017 27.8729 67.5484C32.5669 67.8698 36.4536 67.8003 39.5806 67.3086C39.6811 67.2969 39.8039 67.257 39.9044 67.2453C39.9547 67.2395 40.0301 67.2307 40.0803 67.2249C55.2664 65.7632 65.5978 61.6246 71.097 54.7809C76.507 48.0497 77.1669 40.493 73.1018 32.1079L73.412 32.6079C73.2555 32.3453 73.1241 32.0798 72.9955 31.8395C72.9619 31.7668 72.9284 31.6941 72.8669 31.5991C72.8054 31.5042 72.7691 31.4063 72.7076 31.3113C72.1653 30.3278 71.8438 29.727 71.7152 29.4867C71.3294 28.7658 70.8934 28.0507 70.4574 27.3356C70.34 27.1961 70.2478 27.0536 70.1835 26.9335C66.7431 21.8709 61.606 18.2568 54.7441 16.0688Z" fill="#FFC421"/>
<path d="M5.25118 39.4002C4.78618 40.9337 4.49666 41.9876 4.43007 42.531C4.37719 42.7412 4.32712 42.9766 4.30216 43.2091C4.25771 43.4949 4.23556 43.7525 4.21623 44.0353C4.17739 44.3714 4.16367 44.7046 4.17507 45.0349C4.13078 45.5502 4.13672 46.0597 4.19289 46.5633C4.19851 46.6136 4.1762 46.6417 4.18182 46.6921C4.18463 46.7173 4.18744 46.7425 4.21817 46.7899C4.50515 50.047 5.65169 53.2552 7.68572 56.4366C9.2224 58.8087 11.13 60.857 13.403 62.5312C14.1514 63.0819 14.9723 63.5986 15.8155 64.0872C19.2106 66.0136 23.2303 67.1531 27.9249 67.4999C32.6167 67.8215 36.5016 67.7524 39.627 67.2614C39.7275 67.2497 39.8503 67.2099 39.9507 67.1982C40.001 67.1924 40.0763 67.1836 40.1266 67.1778C53.3686 65.9184 62.9447 62.5857 68.8325 57.2076C46.2055 67.6187 27.9396 68.544 14.0404 60.0339C7.18756 54.4795 4.26063 47.6267 5.25118 39.4002Z" fill="#EFB207"/>
<path d="M56.1729 23.4166C52.8394 23.4166 50.011 24.5864 47.6624 26.9514C45.3138 29.3164 44.1521 32.1646 44.1521 35.5214C44.1521 38.8782 45.3138 41.7264 47.6624 44.0914C50.011 46.4564 52.8394 47.6262 56.1729 47.6262C59.5065 47.6262 62.3349 46.4564 64.6583 44.0914C67.0069 41.7264 68.1938 38.8782 68.1938 35.5214C68.1938 32.1646 67.0069 29.3164 64.6583 26.9514C62.3349 24.5864 59.5065 23.4166 56.1729 23.4166Z" fill="white"/>
<path d="M24.6183 30.4735C21.2847 30.4735 18.4563 31.6433 16.1077 34.0083C13.7591 36.3733 12.5974 39.2215 12.5974 42.5783C12.5974 45.9351 13.7591 48.7833 16.1077 51.1483C18.4563 53.5133 21.2847 54.6831 24.6183 54.6831C27.9518 54.6831 30.7802 53.5133 33.1036 51.1483C35.4522 48.7833 36.6391 45.9351 36.6391 42.5783C36.6391 39.2215 35.4522 36.3733 33.1036 34.0083C30.7802 31.6433 27.9518 30.4735 24.6183 30.4735Z" fill="white"/>
<path d="M25.9417 39.875C25.1238 40.6986 24.7148 41.6987 24.7148 42.8517C24.7148 44.0283 25.1238 45.0284 25.9417 45.8519C26.7595 46.6755 27.7527 47.0873 28.9094 47.0873C30.0661 47.0873 31.0593 46.6755 31.8771 45.8519C32.695 45.0284 33.104 44.0283 33.104 42.8517C33.104 41.6869 32.695 40.6986 31.8771 39.875C31.0593 39.0397 30.0661 38.6279 28.9094 38.6279C27.7644 38.6279 26.7712 39.0397 25.9417 39.875Z" fill="#413535"/>
<path d="M50.2517 34.5295C49.4338 35.3531 49.0249 36.3532 49.0249 37.5062C49.0249 38.6828 49.4338 39.6829 50.2517 40.5065C51.0696 41.3301 52.0627 41.7418 53.2195 41.7418C54.3762 41.7418 55.3693 41.3301 56.1872 40.5065C57.0051 39.6829 57.414 38.6828 57.414 37.5062C57.414 36.3414 57.0051 35.3531 56.1872 34.5295C55.3693 33.6942 54.3762 33.2824 53.2195 33.2824C52.0627 33.2824 51.0696 33.6942 50.2517 34.5295Z" fill="#413535"/>
<path d="M45.2502 44.7362C44.4769 44.6582 43.6737 44.706 42.8253 44.8691C41.9769 45.0323 41.0834 45.3108 40.1729 45.7127C38.3342 46.4931 36.6639 48.108 35.1491 50.56C33.6472 53.0094 33.1048 55.0343 33.5067 56.6241C33.9238 58.2243 35.2252 59.2811 37.4236 59.7919C39.6629 60.3081 42.0777 59.4036 44.6911 57.0605C48.5217 58.0442 51.2994 57.8034 53.0113 56.3405C54.3991 55.14 54.9718 53.9229 54.7268 52.6763C54.659 52.3826 54.5501 52.0835 54.4027 51.7917C53.608 50.2374 52.2591 48.7097 50.3664 47.1932C48.5147 45.6821 46.805 44.864 45.2502 44.7362Z" fill="#FFC421"/>
<path d="M43.1152 50.4491C43.0549 50.554 43.0417 50.7698 43.1016 51.0916L43.9515 56.0202C43.867 56.2097 43.7929 56.3839 43.714 56.5324C42.961 57.8501 41.7829 58.743 40.195 59.2214C39.5517 59.4117 38.6902 59.4306 37.6 59.2935C36.5123 59.1693 35.4534 58.4131 34.4106 57.0273C34.1483 57.4776 34.1388 57.9992 34.3822 58.5923C34.6255 59.1853 35.0754 59.6721 35.7236 60.0807C36.3718 60.4893 37.0756 60.7673 37.8373 60.9275C38.799 61.0893 39.691 61.0911 40.539 60.9282C42.2736 60.5948 43.7842 59.558 45.0629 57.8461C47.1387 58.8468 48.895 59.2024 50.3316 58.913C51.7683 58.6236 52.6181 58.327 52.8834 58.036C53.5222 57.6067 53.9886 57.0372 54.2929 56.3122C54.5844 55.5897 54.7152 55.0048 54.6724 54.5598C54.6424 54.1123 54.4382 53.6584 54.0703 53.1826C53.6595 54.981 52.9853 56.1503 52.0605 56.6879C51.3969 57.0554 50.7303 57.2635 50.0501 57.3275C48.4025 57.4842 46.9955 57.0748 45.8213 56.1274C45.6945 56.0185 45.5502 55.8863 45.4163 55.7387L44.5939 51.2447C44.4453 50.6601 44.3293 50.3225 44.2716 50.2269C43.6633 49.3174 43.2907 49.389 43.1152 50.4491Z" fill="#684E3A"/>
<path d="M40.5529 49.8323C40.2908 50.0694 40.093 50.2941 39.9514 50.5348C40.5918 52.3324 42.0363 53.2286 44.2977 53.2208C46.2544 52.7914 47.34 51.5424 47.5567 49.4867C47.215 49.1522 46.7953 48.8994 46.3233 48.7233C45.4507 48.3975 44.4438 48.3509 43.3128 48.5683C42.1562 48.7906 41.2354 49.2076 40.5529 49.8323Z" fill="#684E3A"/>
</svg>
