<svg width="292" height="72" viewBox="0 0 292 72" fill="none" xmlns="http://www.w3.org/2000/svg">
<path d="M21.314 14.3853C19.3542 13.0804 17.5451 12.0154 15.8364 11.1953C13.7829 10.2319 12.0031 9.72533 10.5222 9.67308C9.47705 9.6527 8.5801 9.84683 7.78349 10.2859C7.18097 10.6285 6.6412 11.0922 6.16667 11.7025C6.03039 11.8696 5.92178 12.0594 5.78797 12.2518C4.99748 13.5325 4.45802 15.298 4.14442 17.5508C3.87173 19.442 3.76461 21.7247 3.79785 24.4013C3.83358 27.1032 4.24295 30.7622 5.00573 35.4314C5.76851 40.1006 7.62879 46.6226 10.5915 55.0478L12.0733 53.0325L35.4538 26.0028C33.3565 24.074 31.4352 22.3823 29.7125 20.9C26.5462 18.1875 23.7391 16.0252 21.314 14.3853Z" fill="#FFC421"/>
<path d="M48.7268 10.4161C50.0494 8.55543 51.3176 6.96338 52.5785 5.62692C54.1014 4.04078 55.5325 2.96172 56.8485 2.39625C57.7829 2.01199 58.6566 1.87271 59.5229 1.98906C60.1817 2.0865 60.825 2.31499 61.4593 2.69815C61.6387 2.80087 61.8009 2.93371 61.9866 3.06005C63.1328 3.93617 64.2172 5.3365 65.2634 7.25455C66.1502 8.86149 66.959 10.7435 67.7134 12.8942C68.7204 15.6092 69.6739 18.9729 70.6507 22.9896C71.1677 25.1042 71.6663 31.8648 72.1764 43.2883L68.1851 40.863L39.9309 25.824C41.1658 23.3535 42.3227 21.1581 43.3716 19.2207C45.3037 15.6705 47.0987 12.7414 48.7268 10.4161Z" fill="#FFC421"/>
<path d="M54.744 16.0688C48.9127 14.2204 42.7751 13.7351 36.3312 14.6129C29.8342 15.4714 23.983 17.5567 18.7524 20.8717C17.8955 21.4055 17.0917 21.9586 16.341 22.531C12.509 25.3768 9.64064 28.6466 7.68559 32.3461C7.5796 32.5371 7.47361 32.7281 7.39276 32.9163C6.95491 33.7841 6.59246 34.6433 6.26075 35.5499C6.21891 35.6313 6.17708 35.7128 6.16318 35.8165C6.14367 35.8698 6.12416 35.9232 6.10464 35.9765C5.81196 36.7764 5.57233 37.5957 5.38578 38.4343C5.31053 38.6729 5.58932 37.9766 6.19983 36.3739C5.11288 39.6404 4.50266 41.7027 4.36917 42.5607C4.31625 42.7711 4.26613 43.0067 4.24115 43.2393C4.19665 43.5253 4.17447 43.7832 4.1551 44.0663C4.11622 44.4027 4.10247 44.7361 4.11384 45.0667C4.06948 45.5824 4.07538 46.0923 4.13154 46.5963C4.13716 46.6467 4.11484 46.6749 4.12045 46.7253C4.12326 46.7505 4.12607 46.7757 4.15681 46.8231C4.44364 50.0829 5.59044 53.2937 7.62516 56.4776C9.65706 59.6364 12.3615 62.2062 15.758 64.1339C19.1546 66.0616 23.1761 67.2017 27.8728 67.5484C32.5668 67.8698 36.4535 67.8003 39.5805 67.3086C39.681 67.2969 39.8038 67.257 39.9043 67.2453C39.9546 67.2395 40.03 67.2307 40.0802 67.2249C55.2663 65.7632 65.5977 61.6246 71.0969 54.7809C76.5069 48.0497 77.1668 40.493 73.1017 32.1079L73.4119 32.6079C73.2554 32.3453 73.124 32.0798 72.9954 31.8395C72.9618 31.7668 72.9283 31.6941 72.8668 31.5991C72.8053 31.5042 72.769 31.4063 72.7075 31.3113C72.1652 30.3278 71.8437 29.727 71.7151 29.4867C71.3293 28.7658 70.8933 28.0507 70.4573 27.3356C70.3399 27.1961 70.2477 27.0536 70.1834 26.9335C66.743 21.8709 61.6059 18.2568 54.744 16.0688Z" fill="#FFC421"/>
<path d="M5.25115 39.4002C4.78615 40.9337 4.49663 41.9876 4.43004 42.531C4.37716 42.7412 4.32709 42.9766 4.30213 43.2091C4.25768 43.4949 4.23553 43.7525 4.2162 44.0353C4.17736 44.3714 4.16364 44.7046 4.17504 45.0349C4.13075 45.5502 4.13669 46.0597 4.19286 46.5633C4.19848 46.6136 4.17617 46.6417 4.18179 46.6921C4.1846 46.7173 4.18741 46.7425 4.21814 46.7899C4.50512 50.047 5.65166 53.2552 7.68569 56.4366C9.22237 58.8087 11.13 60.857 13.403 62.5312C14.1514 63.0819 14.9723 63.5986 15.8155 64.0872C19.2106 66.0136 23.2303 67.1531 27.9249 67.4999C32.6167 67.8215 36.5016 67.7524 39.627 67.2614C39.7275 67.2497 39.8503 67.2099 39.9507 67.1982C40.001 67.1924 40.0763 67.1836 40.1266 67.1778C53.3686 65.9184 62.9447 62.5857 68.8325 57.2076C46.2055 67.6187 27.9396 68.544 14.0404 60.0339C7.18753 54.4795 4.2606 47.6267 5.25115 39.4002Z" fill="#EFB207"/>
<path d="M56.1729 23.4166C52.8394 23.4166 50.011 24.5864 47.6624 26.9514C45.3138 29.3164 44.1521 32.1646 44.1521 35.5214C44.1521 38.8782 45.3138 41.7264 47.6624 44.0914C50.011 46.4564 52.8394 47.6262 56.1729 47.6262C59.5065 47.6262 62.3349 46.4564 64.6583 44.0914C67.0069 41.7264 68.1938 38.8782 68.1938 35.5214C68.1938 32.1646 67.0069 29.3164 64.6583 26.9514C62.3349 24.5864 59.5065 23.4166 56.1729 23.4166Z" fill="white"/>
<path d="M24.6183 30.4735C21.2847 30.4735 18.4563 31.6433 16.1077 34.0083C13.7591 36.3733 12.5974 39.2215 12.5974 42.5783C12.5974 45.9351 13.7591 48.7833 16.1077 51.1483C18.4563 53.5133 21.2847 54.6831 24.6183 54.6831C27.9518 54.6831 30.7802 53.5133 33.1036 51.1483C35.4522 48.7833 36.6391 45.9351 36.6391 42.5783C36.6391 39.2215 35.4522 36.3733 33.1036 34.0083C30.7802 31.6433 27.9518 30.4735 24.6183 30.4735Z" fill="white"/>
<path d="M25.9417 39.875C25.1238 40.6986 24.7148 41.6987 24.7148 42.8517C24.7148 44.0283 25.1238 45.0284 25.9417 45.8519C26.7595 46.6755 27.7527 47.0873 28.9094 47.0873C30.0661 47.0873 31.0593 46.6755 31.8771 45.8519C32.695 45.0284 33.104 44.0283 33.104 42.8517C33.104 41.6869 32.695 40.6986 31.8771 39.875C31.0593 39.0397 30.0661 38.6279 28.9094 38.6279C27.7644 38.6279 26.7712 39.0397 25.9417 39.875Z" fill="#413535"/>
<path d="M50.2517 34.5295C49.4338 35.3531 49.0249 36.3532 49.0249 37.5062C49.0249 38.6828 49.4338 39.6829 50.2517 40.5065C51.0696 41.3301 52.0627 41.7418 53.2195 41.7418C54.3762 41.7418 55.3693 41.3301 56.1872 40.5065C57.0051 39.6829 57.414 38.6828 57.414 37.5062C57.414 36.3414 57.0051 35.3531 56.1872 34.5295C55.3693 33.6942 54.3762 33.2824 53.2195 33.2824C52.0627 33.2824 51.0696 33.6942 50.2517 34.5295Z" fill="#413535"/>
<path d="M45.2503 44.7362C44.477 44.6582 43.6738 44.706 42.8254 44.8691C41.977 45.0323 41.0835 45.3108 40.173 45.7127C38.3343 46.4931 36.664 48.108 35.1492 50.56C33.6473 53.0094 33.1049 55.0343 33.5068 56.6241C33.9239 58.2243 35.2253 59.2811 37.4237 59.7919C39.663 60.3081 42.0778 59.4036 44.6912 57.0605C48.5218 58.0442 51.2995 57.8034 53.0114 56.3405C54.3992 55.14 54.9719 53.9229 54.7269 52.6763C54.6591 52.3826 54.5502 52.0835 54.4028 51.7917C53.6081 50.2374 52.2592 48.7097 50.3665 47.1932C48.5148 45.6821 46.8051 44.864 45.2503 44.7362Z" fill="#FFC421"/>
<path d="M43.1152 50.4491C43.0549 50.554 43.0417 50.7698 43.1016 51.0916L43.9515 56.0202C43.867 56.2097 43.7929 56.3839 43.714 56.5324C42.961 57.8501 41.7829 58.743 40.195 59.2214C39.5517 59.4117 38.6902 59.4306 37.6 59.2935C36.5123 59.1693 35.4534 58.4131 34.4106 57.0273C34.1483 57.4776 34.1388 57.9992 34.3822 58.5923C34.6255 59.1853 35.0754 59.6721 35.7236 60.0807C36.3718 60.4893 37.0756 60.7673 37.8373 60.9275C38.799 61.0893 39.691 61.0911 40.539 60.9282C42.2736 60.5948 43.7842 59.558 45.0629 57.8461C47.1387 58.8468 48.895 59.2024 50.3316 58.913C51.7683 58.6236 52.6181 58.327 52.8834 58.036C53.5222 57.6067 53.9886 57.0372 54.2929 56.3122C54.5844 55.5897 54.7152 55.0048 54.6724 54.5598C54.6424 54.1123 54.4382 53.6584 54.0703 53.1826C53.6595 54.981 52.9853 56.1503 52.0605 56.6879C51.3969 57.0554 50.7303 57.2635 50.0501 57.3275C48.4025 57.4842 46.9955 57.0748 45.8213 56.1274C45.6945 56.0185 45.5503 55.8863 45.4164 55.7387L44.5939 51.2447C44.4453 50.6601 44.3293 50.3225 44.2716 50.2269C43.6633 49.3174 43.2907 49.389 43.1152 50.4491Z" fill="#684E3A"/>
<path d="M40.5529 49.8323C40.2908 50.0694 40.093 50.2941 39.9514 50.5348C40.5918 52.3324 42.0363 53.2286 44.2977 53.2208C46.2544 52.7914 47.34 51.5424 47.5567 49.4867C47.215 49.1522 46.7953 48.8994 46.3233 48.7233C45.4507 48.3975 44.4438 48.3509 43.3128 48.5683C42.1562 48.7906 41.2354 49.2076 40.5529 49.8323Z" fill="#684E3A"/>
<g clip-path="url(#clip0_632_721)">
<path d="M105.126 36.9148C103.95 36.0971 102.242 35.4767 99.9455 35.082C98.6854 34.8564 96.9492 34.6026 94.765 34.2924C93.1969 33.954 92.4128 33.4465 92.4128 32.7133C92.3288 32.4313 92.3848 32.2058 92.6369 31.9802C93.0569 31.529 94.065 31.2752 95.6611 31.2752C96.7812 31.2752 98.0413 31.5572 99.4414 32.093C100.842 32.6287 101.71 32.9107 101.99 32.9107C102.69 32.9107 103.362 32.0648 103.95 30.3729C104.454 28.9912 104.706 27.9761 104.706 27.2993C104.706 26.7636 103.67 26.1432 101.598 25.4383C99.3574 24.6487 97.0612 24.2539 94.765 24.2258C91.9088 24.1694 89.6406 24.7897 87.9604 26.0586C85.8883 27.6095 84.8522 30.0345 84.8522 33.3901C84.8522 35.4203 85.6643 36.9994 87.2884 38.0709C88.4365 38.8605 90.2287 39.509 92.6369 39.9884C95.9411 40.637 97.7053 41.0035 97.9573 41.0599C99.5534 41.5675 100.365 42.357 100.365 43.4004L100.226 43.7951C100.086 44.1053 99.8895 44.3873 99.6095 44.6411C98.6854 45.4588 97.2292 45.8818 95.1851 45.8818C93.0289 45.8818 91.0967 45.2332 89.3886 43.9643C89.1646 43.7669 88.6325 43.344 87.8484 42.639C87.4004 42.2442 87.0644 42.0469 86.8684 42.0469C86.2243 42.0469 85.6362 43.0056 85.0482 44.923C84.7402 45.8818 84.5162 46.8687 84.3481 47.8838C84.3481 48.5888 85.3842 49.3783 87.4284 50.2807C89.8646 51.3522 92.6369 51.9162 95.7451 51.9162C100.562 51.9162 103.95 50.3089 105.91 47.1225C106.946 45.4024 107.478 43.5695 107.478 41.6239C107.478 39.5654 106.694 38.0145 105.126 36.9148Z" fill="white"/>
<path d="M122.151 18.5438C121.927 17.8671 120.947 17.6133 119.267 17.7825C117.363 17.9799 116.159 18.3747 115.627 18.9668C115.403 19.2206 115.291 19.7846 115.291 20.6023C115.291 22.8863 115.403 25.0858 115.627 27.1724C115.151 27.2006 114.731 27.2006 114.423 27.2006L109.41 27.2852C108.962 27.8492 108.738 28.3568 108.738 28.8361C108.738 30.1614 108.906 31.4021 109.242 32.5301C109.326 32.812 109.41 33.094 109.522 33.3196C110.53 33.6298 112.407 33.799 115.151 33.799C115.375 33.799 115.627 33.799 115.851 33.799C115.879 34.4475 115.879 35.0679 115.935 35.6318V38.6772C116.019 39.6359 116.075 41.074 116.075 43.0479C115.963 44.5706 115.935 45.9805 115.963 47.334C116.075 49.9564 116.523 51.4791 117.307 51.8739L123.047 51.9021C123.299 51.6201 123.523 51.1971 123.664 50.6332C123.776 50.2384 123.832 49.8718 123.832 49.5052C123.832 49.2233 123.664 46.9956 123.327 42.8505C123.327 42.1456 123.327 41.4406 123.327 40.7921C123.327 38.226 123.327 36.647 123.299 36.0548C123.243 35.1807 123.159 34.3629 123.075 33.658C123.187 33.658 123.299 33.6298 123.439 33.6016H125.372C126.772 33.4888 127.696 33.3478 128.172 33.2068C128.284 33.1786 128.368 33.1222 128.452 33.094C128.592 33.094 128.704 33.094 128.788 33.094C128.844 32.953 128.9 32.812 128.928 32.671C129.04 32.1917 129.096 31.6277 129.04 31.0074C129.04 30.6972 129.012 30.246 128.984 29.6539C128.928 28.8925 128.844 28.3004 128.76 27.8774C128.732 27.7364 128.676 27.4544 128.592 27.0314C128.508 26.6931 128.34 26.5239 128.088 26.5239C127.388 26.5239 126.268 26.5521 124.756 26.6367C123.692 26.6931 122.879 26.7495 122.291 26.8341V20.2639C122.235 20.1511 122.207 19.8692 122.235 19.4744C122.235 19.0514 122.235 18.7412 122.151 18.5438Z" fill="white"/>
<path d="M155.012 26.6931C154.928 26.6931 154.872 26.7213 154.816 26.7213C154.816 26.7213 154.788 26.7213 154.788 26.7495H150.7C150.7 26.7495 150.672 26.7213 150.644 26.7213C150.196 26.6649 149.888 26.7495 149.692 27.0314C149.552 27.2006 149.468 27.3416 149.468 27.5108C149.468 27.5108 149.468 27.539 149.44 27.539C149.44 27.6236 149.44 27.7082 149.44 27.7928C149.44 27.821 149.468 27.821 149.468 27.8492C149.468 30.6126 149.244 33.235 148.768 35.7446C148.544 37.0699 148.264 38.1978 147.928 39.1565C147.087 42.4275 145.687 44.063 143.727 44.063C141.403 44.063 139.919 43.0479 139.275 41.0458C139.163 40.6792 139.051 40.1717 138.967 39.5795C138.827 38.508 138.743 37.4929 138.771 36.5623C138.771 34.5321 138.883 32.8684 139.107 31.5431C139.331 30.1896 139.499 29.1181 139.639 28.3003C139.751 27.4826 139.639 27.0314 139.247 26.9468C137.959 26.8904 136.783 26.8341 135.746 26.7495H134.402C134.346 26.7495 134.318 26.7213 134.262 26.7213H134.206C134.178 26.7213 134.066 26.7213 133.87 26.6931C133.646 26.6367 133.478 26.7213 133.366 26.9468C133.282 27.1724 133.198 27.3134 133.198 27.398C133.142 27.4826 133.114 27.539 133.114 27.5954C132.778 28.5259 132.554 29.2591 132.47 29.7384C132.302 30.669 132.19 31.7405 132.134 32.9248C132.106 33.5733 132.078 34.6449 132.078 36.1394C132.078 41.3278 133.198 45.5011 135.438 48.6875L135.466 48.7157C135.522 48.7721 135.578 48.8567 135.662 48.9131C135.887 49.1386 136.083 49.3642 136.279 49.5616C137.931 50.5485 139.499 51.0561 141.011 51.0561C141.067 51.0561 141.151 51.0561 141.235 51.0561C141.935 51.1407 142.663 51.1971 143.447 51.1971C145.407 51.1971 147.031 50.3793 148.32 48.7157C148.544 48.4337 148.74 48.1799 148.936 47.9261C148.936 48.2363 148.964 48.5183 148.992 48.7439C149.132 49.9282 149.356 50.8869 149.72 51.5637V51.6201C150.056 51.7892 150.504 51.902 151.064 51.9302H153.192C154.088 51.8174 154.704 51.6201 155.068 51.3381C155.124 51.2817 155.18 51.2253 155.236 51.1407C155.516 50.8869 155.684 50.6049 155.712 50.2666C155.908 48.6875 156.02 47.8415 156.048 47.7005V40.1999C156.132 38.8746 156.244 36.7597 156.384 33.7989C156.524 30.8381 156.58 29.2027 156.58 28.9489C156.58 28.9489 156.58 28.6951 156.608 28.1875C156.608 27.68 156.552 27.3134 156.468 27.0878C156.384 26.8341 156.132 26.7213 155.74 26.6931C155.46 26.6931 155.264 26.6931 155.012 26.6931Z" fill="white"/>
<path d="M183.183 17.0916L178.758 17.007C177.806 16.9506 177.246 17.4018 177.106 18.3323C177.162 19.2911 177.218 19.7704 177.218 19.8268C177.442 24.3385 177.554 26.7353 177.554 27.0173C177.554 27.2147 177.554 27.3275 177.554 27.3557L177.526 27.4967C177.33 27.4685 176.854 27.2711 176.098 26.9045C175.034 26.5379 173.494 26.3688 171.478 26.3688C166.605 26.3688 163.245 28.0889 161.453 31.529C160.529 33.2773 160.081 35.3921 160.081 37.8454C159.997 40.0166 160.389 42.0751 161.313 43.9925C163.133 47.8275 166.605 49.7167 171.73 49.7167C174.11 49.7167 175.902 49.5193 177.106 49.1246C177.47 48.9836 177.75 48.8426 177.918 48.7016C177.918 49.2655 177.946 49.7731 177.974 50.1961C177.946 50.6191 177.946 50.9856 177.974 51.2958V51.324C178.002 51.3522 178.002 51.3522 178.058 51.3804C178.114 51.4086 178.142 51.465 178.17 51.465C178.226 51.5778 178.254 51.6906 178.31 51.747C178.562 52.1135 179.178 52.3391 180.158 52.4519C180.382 52.4801 180.578 52.5083 180.774 52.5083C180.83 52.5083 180.942 52.5083 181.054 52.5083C181.222 52.5083 181.39 52.5083 181.558 52.5083C182.399 52.5083 183.043 52.4519 183.519 52.3673C183.603 52.3673 183.659 52.3391 183.743 52.3391C183.771 52.3391 183.771 52.3109 183.771 52.3109C183.799 52.2827 183.827 52.2545 183.855 52.2263C183.939 52.1981 183.995 52.1417 184.051 52.1135C184.107 52.0571 184.163 52.0008 184.219 51.9162C184.555 51.5214 184.723 51.0984 184.723 50.6473C184.583 48.8708 184.471 47.2917 184.387 45.8536C184.359 42.8364 184.191 38.0709 183.939 31.529C183.883 30.1191 183.827 28.822 183.771 27.6377L183.939 22.2236C183.939 21.3213 183.911 20.4472 183.827 19.6576C183.715 18.2477 183.491 17.4018 183.183 17.0916ZM168.341 34.3206C169.349 33.3619 170.554 32.8261 171.954 32.6851C173.382 32.5723 174.586 32.9107 175.566 33.6721C176.658 34.5462 177.218 35.8151 177.218 37.4506C177.218 38.9451 176.882 40.214 176.21 41.2855C175.258 42.7518 173.83 43.485 171.87 43.485C169.713 43.485 168.229 42.7236 167.417 41.2291C166.969 40.4114 166.745 39.4527 166.745 38.3247C166.717 36.7174 167.249 35.3921 168.341 34.3206Z" fill="white"/>
<path d="M212.123 27.0173C212.095 26.9327 212.095 26.8481 212.039 26.7917C211.871 26.7353 211.731 26.6507 211.563 26.5662H208.287C208.287 26.5662 208.287 26.5662 208.259 26.5662C208.231 26.5662 208.231 26.538 208.203 26.538C208.007 26.5662 207.363 26.5662 206.299 26.5098C206.187 26.6226 206.019 26.7353 205.851 26.9045C205.598 27.1019 205.402 27.3557 205.29 27.6659C205.318 28.0325 205.346 28.3144 205.346 28.54C205.318 29.4706 205.318 30.2883 205.318 30.965C205.318 31.0214 205.318 31.106 205.318 31.1906C205.318 31.2188 205.318 31.2188 205.318 31.247C205.318 31.388 205.318 31.529 205.318 31.6418C205.318 31.67 205.29 31.67 205.29 31.67C205.122 33.4747 205.038 34.4898 205.038 34.7436C205.038 35.6177 204.842 36.6892 204.45 37.9863C204.058 39.1989 203.582 40.355 202.938 41.3983C202.07 41.0035 201.146 40.355 200.166 39.4808C199.998 39.3398 199.858 39.2271 199.718 39.1143C198.738 38.0709 197.898 36.8302 197.17 35.4203C196.582 34.3206 196.134 32.9107 195.854 31.2188C195.714 30.3447 195.49 29.0758 195.21 27.3557C195.21 27.3557 195.21 27.3275 195.21 27.2993C195.042 27.2147 194.902 27.0737 194.79 26.9045C194.314 26.8763 193.641 26.8481 192.801 26.8199C191.905 26.7917 191.149 26.7635 190.505 26.7353C190.309 26.7635 190.085 26.7917 189.861 26.8199V26.7917C189.413 26.7353 189.105 26.7917 188.853 26.9327C188.601 26.9609 188.405 27.0737 188.293 27.2711C188.265 27.2711 188.265 27.2993 188.237 27.3275C188.153 27.7787 188.125 28.1734 188.125 28.5118C188.125 31.5854 188.601 34.3488 189.581 36.7174C190.057 38.1555 190.505 39.2553 190.925 40.0166C191.625 41.2291 192.633 42.4698 193.949 43.7387C195.49 45.1768 197.002 46.1074 198.486 46.5021C198.01 46.9815 197.058 47.6019 195.658 48.3068C194.846 48.7298 194.006 49.0682 193.193 49.3501C191.765 49.9423 190.225 50.4217 188.601 50.8164C188.461 50.9856 188.321 51.1266 188.265 51.2676C188.377 51.9725 188.433 52.3673 188.433 52.4519C188.433 52.5647 188.433 52.6775 188.433 52.7339C188.601 53.2415 188.825 53.9182 189.077 54.7923C189.105 54.8769 189.357 55.4127 189.805 56.456C189.861 56.6252 189.945 56.8226 190.029 57.02C190.141 57.0764 190.281 57.161 190.421 57.2456C190.561 57.3302 190.673 57.4148 190.813 57.4994C191.233 57.4148 191.653 57.3584 192.073 57.2738C192.913 57.1328 193.669 56.9918 194.398 56.8226C194.818 56.7098 195.266 56.597 195.714 56.4278C196.05 56.315 196.414 56.2022 196.778 56.0895C197.058 55.9485 197.338 55.8357 197.646 55.6947C199.998 54.6232 202.182 53.2979 204.198 51.747C206.383 50.0269 207.951 48.335 208.931 46.6713C210.191 44.5001 211.171 41.8777 211.899 38.8323C212.571 36.0125 212.879 33.3337 212.879 30.7677C212.879 29.7525 212.851 29.104 212.823 28.822C212.739 27.9479 212.487 27.3557 212.123 27.0173ZM210.107 39.3117V39.2835C210.107 39.2271 210.135 39.1989 210.135 39.1707C210.135 39.2271 210.107 39.2553 210.107 39.3117Z" fill="white"/>
<path d="M238.753 27.1442C238.641 27.0878 238.501 27.0596 238.361 27.0314C237.717 26.5239 237.073 26.1291 236.401 25.8472C235.029 25.3114 232.761 25.0012 229.625 24.9166C225.34 25.396 222.12 26.7777 219.992 29.0335C219.208 29.7103 218.536 30.4998 217.976 31.3457C216.547 33.4888 215.819 35.9138 215.819 38.6208C215.819 39.7769 215.931 40.8767 216.155 41.8636C216.323 43.9502 217.163 45.8113 218.704 47.4468C221.252 50.182 225.34 51.6483 230.969 51.8175C230.997 51.8457 231.249 51.8739 231.697 51.9021C232.117 51.9303 232.453 51.9585 232.705 51.9303C234.133 51.9303 235.393 51.7611 236.541 51.3945C237.409 51.3099 238.165 51.0561 238.781 50.6614C238.809 50.5486 238.837 50.4358 238.865 50.323C238.865 50.1256 238.893 49.8154 238.921 49.3925C238.977 48.9413 238.977 48.6875 238.977 48.6311C238.977 48.0671 238.893 46.9392 238.753 45.2191V45.1628C238.669 44.9936 238.529 44.8526 238.361 44.7116C238.277 44.7116 238.193 44.6834 238.053 44.627C237.941 44.5988 237.829 44.5706 237.717 44.5706C236.653 44.9372 235.281 45.1064 233.601 45.1064C229.344 45.1064 226.404 44.1194 224.78 42.1174C223.912 41.074 223.492 39.8333 223.492 38.3388C223.492 36.0266 224.388 34.3629 226.18 33.3196C227.72 32.4173 229.681 32.0507 232.089 32.2481C233.041 32.3327 233.965 32.4737 234.861 32.671C235.085 32.7274 235.309 32.7838 235.533 32.8402C236.177 33.0094 236.793 33.235 237.381 33.517C237.493 33.517 237.605 33.517 237.717 33.4888C237.829 33.4888 237.941 33.517 238.109 33.517C238.165 33.517 238.221 33.4888 238.249 33.4324C238.277 33.4324 238.277 33.4324 238.305 33.4042C238.585 32.8684 238.809 32.0789 238.949 31.0356C239.033 30.3306 239.089 29.5129 239.089 28.6105V27.9338C239.033 27.7646 239.005 27.5954 239.005 27.4262C238.949 27.3416 238.893 27.257 238.781 27.1442C238.781 27.1724 238.753 27.1442 238.753 27.1442Z" fill="white"/>
<path d="M260.399 26.3688C260.147 26.4816 260.035 26.6226 260.007 26.7918C260.007 26.961 260.035 27.1019 260.035 27.1865C260.035 27.2993 260.035 27.4121 260.063 27.4967C259.699 27.3557 259.307 27.2147 258.915 27.0455C256.871 26.2842 255.471 25.8612 254.687 25.8048C253.37 25.4665 252.166 25.3819 251.046 25.4947C248.582 25.2691 246.426 26.1432 244.578 28.1453C243.542 29.2732 242.702 30.6267 242.114 32.2058C241.693 33.3055 241.413 34.2642 241.357 35.1102C241.077 36.0407 240.909 36.7174 240.909 37.1968C240.909 39.8474 241.245 41.9059 241.946 43.4004C242.002 43.485 242.03 43.5696 242.086 43.6541C242.282 44.1335 242.506 44.6129 242.73 45.064C244.634 48.476 247.994 50.1961 252.782 50.1961C254.659 50.1961 256.255 50.0551 257.599 49.7449C258.411 49.5757 259.195 49.2937 259.923 48.9554C259.951 49.1809 259.979 49.8013 260.007 50.8446C260.119 51.4368 260.315 51.8316 260.651 52.0571C260.651 52.0853 260.651 52.0853 260.651 52.1135H260.735C260.903 52.2263 261.099 52.2545 261.351 52.2545C262.079 52.2545 262.723 52.1981 263.283 52.1135L265.047 52.1417C265.86 52.1417 266.392 51.5214 266.616 50.3089C266.7 49.9141 266.728 49.0964 266.728 47.8274C266.728 47.6301 266.728 47.3481 266.728 47.0097C266.84 46.2766 266.896 45.1486 266.896 43.6541C266.728 39.7064 266.644 36.7456 266.616 34.8282C266.616 34.1796 266.672 32.5723 266.812 30.0345C266.672 28.7656 266.588 27.7787 266.532 27.1019C266.28 26.3406 265.888 25.974 265.355 25.974C262.695 25.9176 261.071 26.0586 260.399 26.3688ZM258.131 34.4616C258.971 35.7023 259.391 37.0558 259.391 38.4657C259.531 39.2553 259.363 40.0448 258.859 40.8343C257.879 42.3852 255.807 43.1748 252.642 43.1748C250.682 43.1748 249.226 42.4134 248.218 40.8907C247.574 39.9038 247.238 39.0297 247.238 38.2401C247.238 36.9712 247.714 35.6177 248.666 34.1514C249.898 32.2622 251.466 31.4444 253.398 31.67C255.471 31.9238 257.039 32.8543 258.131 34.4616Z" fill="white"/>
<path d="M285.195 20.3485C285.195 19.6999 285.167 19.2488 285.083 19.0514C284.859 18.3746 284.327 18.1208 283.487 18.3464H281.639C279.903 18.3464 278.867 18.3746 278.503 18.4028C278.307 18.431 278.167 18.4592 278.055 18.5156L278.027 18.4874C277.915 18.4874 277.803 18.5156 277.747 18.572C277.719 18.6002 277.691 18.6566 277.607 18.7412C277.551 18.6848 277.523 18.6566 277.467 18.6002C277.383 19.0232 277.327 19.5025 277.327 20.0383C277.327 22.3223 277.355 23.7604 277.355 24.3526V24.3808C277.271 25.3395 277.243 26.1009 277.215 26.6648C277.215 26.7494 277.215 26.834 277.215 26.9186C276.991 27.0032 276.683 27.0878 276.319 27.1442C275.562 27.2852 274.33 27.3416 272.65 27.3416C271.362 27.3416 270.662 27.7364 270.522 28.4977C270.466 28.5541 270.438 28.6669 270.438 28.8361C270.438 28.8643 270.438 28.8643 270.438 28.9207C270.326 29.2308 270.27 29.6256 270.27 30.105C270.326 31.3739 270.354 32.248 270.354 32.7274C270.326 33.094 270.298 33.4605 270.354 33.7989C270.382 34.3629 270.522 34.6731 270.718 34.7858C270.718 34.814 270.718 34.8422 270.718 34.8422C270.718 35.0114 270.802 35.1242 270.942 35.237C271.166 35.378 271.558 35.4908 272.146 35.5754L277.523 35.66V35.6882C277.523 35.7164 277.523 35.7446 277.523 35.7728C277.523 35.8292 277.523 35.8856 277.523 35.942C277.523 36.2239 277.523 36.5059 277.523 36.8443L277.551 38.2824C277.467 39.4385 277.411 40.933 277.411 42.7659C277.411 42.9069 277.383 43.5272 277.327 44.5705C277.299 45.6703 277.327 46.488 277.411 47.052C277.411 47.1084 277.439 47.8133 277.495 49.195C277.495 49.7026 277.551 50.1255 277.663 50.4921C277.635 50.6895 277.635 50.8587 277.635 51.0561C277.635 51.3099 277.803 51.5636 278.167 51.8174C278.307 51.8174 278.447 51.8456 278.615 51.8456C279.035 51.8174 279.623 51.8174 280.351 51.902C280.855 51.7892 281.415 51.7328 282.115 51.6764C283.403 51.5636 284.439 51.5073 285.279 51.5636C285.307 51.5073 285.363 51.4509 285.391 51.3945C285.587 51.2817 285.699 50.9997 285.727 50.5767C285.727 50.5767 285.727 50.2101 285.727 49.5052C285.727 48.772 285.699 48.2081 285.587 47.8133C285.587 47.2494 285.559 46.6854 285.559 46.1214V40.651C285.475 40.1153 285.363 39.3821 285.279 38.3952C285.251 38.1414 285.223 37.9158 285.195 37.6902C285.139 36.4213 285.083 35.3216 285.027 34.3629C285.055 34.3347 285.111 34.3347 285.139 34.3347C286.259 34.2783 287.632 34.1937 289.2 34.1373C290.348 34.0527 291.132 33.9117 291.524 33.6861H291.804L291.776 33.4605L291.804 33.4323C291.86 33.2914 291.888 33.094 291.916 32.812C291.916 32.6428 291.916 32.4172 291.916 32.1352C291.972 31.7687 292 31.2893 292 30.6689C292 30.3306 292 29.964 292 29.541C292 28.4695 291.972 27.8209 291.944 27.5672C291.832 26.5802 291.58 26.0445 291.132 25.9599C290.376 25.9599 289.872 25.9599 289.648 25.9881C289.508 25.9881 289.452 26.0163 289.452 26.0727C287.828 26.1291 286.427 26.1573 285.251 26.2137C285.223 25.5933 285.167 24.8601 285.083 24.0142C285.083 23.845 285.083 23.6758 285.111 23.5066C285.139 21.6738 285.195 20.6305 285.195 20.3485Z" fill="white"/>
</g>
<defs>
<clipPath id="clip0_632_721">
<rect width="208" height="41" fill="white" transform="translate(84 17)"/>
</clipPath>
</defs>
</svg>
